<svg width="16" height="16" viewBox="0 0 16 16" fill="none" xmlns="http://www.w3.org/2000/svg">
<path d="M2.66683 9.33317C3.40321 9.33317 4.00016 8.73622 4.00016 7.99984C4.00016 7.26346 3.40321 6.6665 2.66683 6.6665C1.93045 6.6665 1.3335 7.26346 1.3335 7.99984C1.3335 8.73622 1.93045 9.33317 2.66683 9.33317Z" fill="#0D0D12"/>
<path d="M8.00016 9.33317C8.73654 9.33317 9.3335 8.73622 9.3335 7.99984C9.3335 7.26346 8.73654 6.6665 8.00016 6.6665C7.26378 6.6665 6.66683 7.26346 6.66683 7.99984C6.66683 8.73622 7.26378 9.33317 8.00016 9.33317Z" fill="#0D0D12"/>
<path d="M13.3335 9.33317C14.0699 9.33317 14.6668 8.73622 14.6668 7.99984C14.6668 7.26346 14.0699 6.6665 13.3335 6.6665C12.5971 6.6665 12.0002 7.26346 12.0002 7.99984C12.0002 8.73622 12.5971 9.33317 13.3335 9.33317Z" fill="#0D0D12"/>
</svg>
