<svg width="36" height="36" viewBox="0 0 36 36" fill="none" xmlns="http://www.w3.org/2000/svg">
<rect x="0.5" y="0.5" width="35" height="35" rx="7.5" fill="white"/>
<rect x="0.5" y="0.5" width="35" height="35" rx="7.5" stroke="#DFE1E7"/>
<path d="M16.3333 22.1667H19.6667M18.8333 19.6667H19.6667M10.5 25.4999V17.0741C10.5 16.0454 10.9749 15.0744 11.7869 14.4429L15.9535 11.2022C16.5554 10.7341 17.2777 10.5 18 10.5C18.7223 10.5 19.4446 10.7341 20.0465 11.2022L24.2131 14.4429C25.0251 15.0744 25.5 16.0454 25.5 17.0741V25.4999M15.8333 24.6667H20.1667C21.2712 24.6667 22.1667 23.7712 22.1667 22.6667V18.3333C22.1667 17.2288 21.2712 16.3333 20.1667 16.3333H15.8333C14.7288 16.3333 13.8333 17.2288 13.8333 18.3333V22.6667C13.8333 23.7712 14.7288 24.6667 15.8333 24.6667Z" stroke="#F34147" stroke-width="2" stroke-linecap="round" stroke-linejoin="round"/>
</svg>
