<svg width="36" height="36" viewBox="0 0 36 36" fill="none" xmlns="http://www.w3.org/2000/svg">
<rect x="0.5" y="0.5" width="35" height="35" rx="7.5" fill="white"/>
<rect x="0.5" y="0.5" width="35" height="35" rx="7.5" stroke="#DFE1E7"/>
<path d="M14.25 19.25H18M21.75 19.25H18M18 16.3333H16.4021C15.6021 16.3333 14.879 16.8101 14.5638 17.5455L14.0759 18.684C13.9159 19.0574 13.8333 19.4595 13.8333 19.8658V22.6667C13.8333 23.7712 14.7288 24.6667 15.8333 24.6667H20.1667C21.2712 24.6667 22.1667 23.7712 22.1667 22.6667V19.8658C22.1667 19.4595 22.0841 19.0574 21.9241 18.684L21.4362 17.5455C21.121 16.8101 20.3979 16.3333 19.5979 16.3333H18ZM18 16.3333V19.25M16.3333 22.1667H18M10.5 25.4999V17.0741C10.5 16.0454 10.9749 15.0744 11.7869 14.4429L15.9535 11.2022C16.5554 10.7341 17.2777 10.5 18 10.5C18.7223 10.5 19.4446 10.7341 20.0465 11.2022L24.2131 14.4429C25.0251 15.0744 25.5 16.0454 25.5 17.0741V25.4999" stroke="#F34147" stroke-width="2" stroke-linecap="round" stroke-linejoin="round"/>
</svg>
