<svg width="49" height="48" viewBox="0 0 49 48" fill="none" xmlns="http://www.w3.org/2000/svg">
<rect x="0.666504" width="48" height="48" rx="10" fill="#F34147"/>
<path d="M24.459 26.742L21.9185 24.2057C21.1007 23.3893 21.1007 22.0657 21.9185 21.2494C22.6493 20.5198 22.7376 19.367 22.1264 18.535L20.0404 15.6951C19.4228 14.8544 18.2 14.7611 17.4616 15.4983C16.3374 16.6206 15.5846 18.1059 15.6736 19.6906C16.1083 27.4326 22.1649 32.6079 29.0141 32.993C30.5848 33.0813 32.0476 32.3229 33.16 31.2123C33.9094 30.4642 33.8145 29.2252 32.9598 28.5995L30.1391 26.5344C29.3057 25.9242 28.151 26.0124 27.4202 26.742C26.6025 27.5583 25.2767 27.5583 24.459 26.742Z" stroke="white" stroke-width="2" stroke-linecap="round" stroke-linejoin="round"/>
</svg>
