<svg width="20" height="20" viewBox="0 0 20 20" fill="none" xmlns="http://www.w3.org/2000/svg">
<path d="M12.9165 14.1666C12.9165 15.0871 13.6627 15.8333 14.5832 15.8333C15.5036 15.8333 16.2498 15.0871 16.2498 14.1666M12.9165 14.1666C12.9165 13.2462 13.6627 12.5 14.5832 12.5C15.5036 12.5 16.2498 13.2462 16.2498 14.1666M12.9165 14.1666H12.4998M7.08317 14.1666C7.08317 15.0871 6.33698 15.8333 5.4165 15.8333C4.49603 15.8333 3.74984 15.0871 3.74984 14.1666M7.08317 14.1666C7.08317 13.2462 6.33698 12.5 5.4165 12.5C4.49603 12.5 3.74984 13.2462 3.74984 14.1666M7.08317 14.1666H12.4998M3.74984 14.1666H3.6665C2.56193 14.1666 1.6665 13.2712 1.6665 12.1666V6.16663C1.6665 5.06206 2.56193 4.16663 3.6665 4.16663H10.4998C11.6044 4.16663 12.4998 5.06206 12.4998 6.16663V6.66663M16.2498 14.1666H16.3332C17.4377 14.1666 18.3332 13.2712 18.3332 12.1666V11.3333C18.3332 10.4678 18.0525 9.62568 17.5332 8.93329L16.4332 7.46663C16.0555 6.96301 15.4627 6.66663 14.8332 6.66663H12.4998M12.4998 6.66663V14.1666M17.9165 9.99996H15.8332" stroke="#666D80" stroke-width="2" stroke-linecap="round" stroke-linejoin="round"/>
</svg>
