<svg width="48" height="48" viewBox="0 0 48 48" fill="none" xmlns="http://www.w3.org/2000/svg">
<rect width="48" height="48" rx="10" fill="#F34147"/>
<path d="M24.5259 13C30.3103 13 34.9995 17.6892 34.9995 23.4736C34.9995 29.2581 30.3103 33.9472 24.5259 33.9473C23.1312 33.9472 21.7973 33.6744 20.5776 33.1777C20.2511 33.0448 19.942 33.0331 19.6978 33.1162L16.2466 34.291C14.6753 34.8259 13.1735 33.3242 13.7085 31.7529L14.8833 28.3018C14.9664 28.0574 14.9548 27.7485 14.8218 27.4219C14.3251 26.2021 14.0522 24.8684 14.0522 23.4736C14.0523 17.6893 18.7416 13.0002 24.5259 13ZM24.5259 15C19.8462 15.0002 16.0523 18.7939 16.0522 23.4736C16.0522 24.6054 16.2735 25.6836 16.6743 26.668C16.9517 27.3493 17.0445 28.1613 16.7769 28.9473L15.6011 32.3984L19.0522 31.2227C19.8381 30.955 20.6503 31.0479 21.3315 31.3252C22.3158 31.726 23.3941 31.9472 24.5259 31.9473C29.2057 31.9472 32.9995 28.1535 32.9995 23.4736C32.9995 18.7938 29.2057 15 24.5259 15ZM20.5005 22.5C21.0525 22.5003 21.5005 22.9479 21.5005 23.5C21.5005 24.0521 21.0525 24.4997 20.5005 24.5C19.9482 24.5 19.5005 24.0523 19.5005 23.5C19.5005 22.9477 19.9482 22.5 20.5005 22.5ZM24.5005 22.5C25.0525 22.5003 25.5005 22.9479 25.5005 23.5C25.5005 24.0521 25.0525 24.4997 24.5005 24.5C23.9482 24.5 23.5005 24.0523 23.5005 23.5C23.5005 22.9477 23.9482 22.5 24.5005 22.5ZM28.5005 22.5C29.0525 22.5003 29.5005 22.9479 29.5005 23.5C29.5005 24.0521 29.0525 24.4997 28.5005 24.5C27.9482 24.5 27.5005 24.0523 27.5005 23.5C27.5005 22.9477 27.9482 22.5 28.5005 22.5Z" fill="white"/>
</svg>
