<svg width="20" height="20" viewBox="0 0 20 20" fill="none" xmlns="http://www.w3.org/2000/svg">
<path d="M5 8.23625H3.75C3.05964 8.23625 2.5 7.67068 2.5 6.97301V6.80437C2.5 6.13874 2.88789 5.53555 3.48977 5.26522L9.3231 2.64517C9.75404 2.45161 10.246 2.45161 10.6769 2.64517L16.5102 5.26522C17.1121 5.53555 17.5 6.13874 17.5 6.80437V6.97301C17.5 7.67068 16.9404 8.23625 16.25 8.23625H15M5 8.23625V14.1314M5 8.23625H8.33333M5 14.1314H3.75C3.05964 14.1314 2.5 14.6969 2.5 15.3946V16.2368C2.5 16.9344 3.05964 17.5 3.75 17.5H16.25C16.9404 17.5 17.5 16.9344 17.5 16.2368V15.3946C17.5 14.6969 16.9404 14.1314 16.25 14.1314H15M5 14.1314H8.33333M15 8.23625V14.1314M15 8.23625H11.6667M15 14.1314H11.6667M11.6667 8.23625V14.1314M11.6667 8.23625H8.33333M11.6667 14.1314H8.33333M8.33333 8.23625V14.1314" stroke="#666D80" stroke-width="2" stroke-linecap="round" stroke-linejoin="round"/>
</svg>
