<svg width="32" height="32" viewBox="0 0 32 32" fill="none" xmlns="http://www.w3.org/2000/svg">
<g filter="url(#filter0_i_17907_8024)">
<rect width="32" height="32" rx="8" fill="#ECEFF3"/>
<path d="M17.6665 17.6667H14.3332C12.032 17.6667 10.1665 19.5321 10.1665 21.8333V22.6667C10.1665 23.1269 10.5396 23.5 10.9998 23.5H20.9998C21.4601 23.5 21.8332 23.1269 21.8332 22.6667V21.8333C21.8332 19.5321 19.9677 17.6667 17.6665 17.6667Z" stroke="#818898" stroke-width="1.66667"/>
<path d="M15.9998 15.1667C17.8408 15.1667 19.3332 13.6743 19.3332 11.8333C19.3332 9.99238 17.8408 8.5 15.9998 8.5C14.1589 8.5 12.6665 9.99238 12.6665 11.8333C12.6665 13.6743 14.1589 15.1667 15.9998 15.1667Z" stroke="#818898" stroke-width="1.66667"/>
</g>
<defs>
<filter id="filter0_i_17907_8024" x="0" y="-4" width="32" height="36" filterUnits="userSpaceOnUse" color-interpolation-filters="sRGB">
<feFlood flood-opacity="0" result="BackgroundImageFix"/>
<feBlend mode="normal" in="SourceGraphic" in2="BackgroundImageFix" result="shape"/>
<feColorMatrix in="SourceAlpha" type="matrix" values="0 0 0 0 0 0 0 0 0 0 0 0 0 0 0 0 0 0 127 0" result="hardAlpha"/>
<feOffset dy="-4"/>
<feGaussianBlur stdDeviation="3"/>
<feComposite in2="hardAlpha" operator="arithmetic" k2="-1" k3="1"/>
<feColorMatrix type="matrix" values="0 0 0 0 1 0 0 0 0 1 0 0 0 0 1 0 0 0 0.5 0"/>
<feBlend mode="normal" in2="shape" result="effect1_innerShadow_17907_8024"/>
</filter>
</defs>
</svg>
