<svg width="20" height="20" viewBox="0 0 20 20" fill="none" xmlns="http://www.w3.org/2000/svg">
<g clip-path="url(#clip0_17816_7021)">
<path d="M14.1665 17.2186V16.2501C14.1665 14.4091 12.6741 12.9167 10.8332 12.9167H9.1665C7.32556 12.9167 5.83317 14.4091 5.83317 16.2501V17.2186M14.1665 17.2186C16.6573 15.7777 18.3332 13.0846 18.3332 10.0001C18.3332 5.39771 14.6022 1.66675 9.99984 1.66675C5.39746 1.66675 1.6665 5.39771 1.6665 10.0001C1.6665 13.0846 3.34233 15.7777 5.83317 17.2186M14.1665 17.2186C12.9408 17.9276 11.5177 18.3334 9.99984 18.3334C8.48197 18.3334 7.05889 17.9276 5.83317 17.2186M12.4998 7.50008C12.4998 8.88079 11.3805 10.0001 9.99984 10.0001C8.61913 10.0001 7.49984 8.88079 7.49984 7.50008C7.49984 6.11937 8.61913 5.00008 9.99984 5.00008C11.3805 5.00008 12.4998 6.11937 12.4998 7.50008Z" stroke="#666D80" stroke-width="2"/>
</g>
<defs>
<clipPath id="clip0_17816_7021">
<rect width="20" height="20" fill="white"/>
</clipPath>
</defs>
</svg>
