<svg width="32" height="32" viewBox="0 0 32 32" fill="none" xmlns="http://www.w3.org/2000/svg">
<g filter="url(#filter0_i_17907_8002)">
<rect width="32" height="32" rx="8" fill="#ECEFF3"/>
<path d="M12.6665 21H19.3332M11.8332 8.5H20.1665C21.087 8.5 21.8332 9.24619 21.8332 10.1667V11.0646C21.8332 12.0772 21.3729 13.0349 20.5822 13.6675L18.4799 15.3493C18.0629 15.6829 18.0629 16.3171 18.4799 16.6507L20.5822 18.3325C21.3729 18.9651 21.8332 19.9228 21.8332 20.9354V21.8333C21.8332 22.7538 21.087 23.5 20.1665 23.5H11.8332C10.9127 23.5 10.1665 22.7538 10.1665 21.8333V20.9354C10.1665 19.9228 10.6268 18.9651 11.4175 18.3325L13.5198 16.6507C13.9368 16.3171 13.9368 15.6829 13.5198 15.3493L11.4175 13.6675C10.6268 13.0349 10.1665 12.0772 10.1665 11.0646V10.1667C10.1665 9.24619 10.9127 8.5 11.8332 8.5Z" stroke="#818898" stroke-width="1.66667" stroke-linecap="round"/>
</g>
<defs>
<filter id="filter0_i_17907_8002" x="0" y="-4" width="32" height="36" filterUnits="userSpaceOnUse" color-interpolation-filters="sRGB">
<feFlood flood-opacity="0" result="BackgroundImageFix"/>
<feBlend mode="normal" in="SourceGraphic" in2="BackgroundImageFix" result="shape"/>
<feColorMatrix in="SourceAlpha" type="matrix" values="0 0 0 0 0 0 0 0 0 0 0 0 0 0 0 0 0 0 127 0" result="hardAlpha"/>
<feOffset dy="-4"/>
<feGaussianBlur stdDeviation="3"/>
<feComposite in2="hardAlpha" operator="arithmetic" k2="-1" k3="1"/>
<feColorMatrix type="matrix" values="0 0 0 0 1 0 0 0 0 1 0 0 0 0 1 0 0 0 0.5 0"/>
<feBlend mode="normal" in2="shape" result="effect1_innerShadow_17907_8002"/>
</filter>
</defs>
</svg>
