<svg width="36" height="36" viewBox="0 0 36 36" fill="none" xmlns="http://www.w3.org/2000/svg">
<rect x="0.5" y="0.5" width="35" height="35" rx="7.5" fill="white"/>
<rect x="0.5" y="0.5" width="35" height="35" rx="7.5" stroke="#DFE1E7"/>
<path d="M13 19.6667H14.6667M13 22.1667H17.1667M10.9167 15.0833H17.5833M24.25 15.0833H17.5833M17.5833 10.5H14.5151C13.3386 10.5 12.2708 11.1876 11.784 12.2586L10.7689 14.4918C10.5917 14.8816 10.5 15.3049 10.5 15.7332V21.6667C10.5 23.3235 11.8431 24.6667 13.5 24.6667H18M17.5833 10.5H20.6516C21.828 10.5 22.8959 11.1876 23.3827 12.2586L24.3978 14.4918C24.575 14.8816 24.6667 15.3049 24.6667 15.7332V19.6667M17.5833 10.5V15.0833M21.3333 24.25L22.5833 25.5L25.5 22.5833" stroke="#F34147" stroke-width="2" stroke-linecap="round" stroke-linejoin="round"/>
</svg>
