<svg width="36" height="36" viewBox="0 0 36 36" fill="none" xmlns="http://www.w3.org/2000/svg">
<rect x="0.5" y="0.5" width="35" height="35" rx="7.5" fill="white"/>
<rect x="0.5" y="0.5" width="35" height="35" rx="7.5" stroke="#DFE1E7"/>
<path d="M13 19.6667H14.6667M13 22.1667H18M10.9167 15.0833H17.5833M24.25 15.0833H17.5833M17.5833 10.5H14.5151C13.3386 10.5 12.2708 11.1876 11.784 12.2586L10.7689 14.4918C10.5917 14.8816 10.5 15.3049 10.5 15.7332V21.6667C10.5 23.3235 11.8431 24.6667 13.5 24.6667H18.8333M17.5833 10.5H20.6516C21.828 10.5 22.8959 11.1876 23.3827 12.2586L24.3978 14.4918C24.575 14.8816 24.6667 15.3049 24.6667 15.7332V16.75M17.5833 10.5V15.0833M23.1705 25.3751C21.7345 23.3534 21.3333 22.7783 21.3333 21.685C21.3333 20.5703 22.2661 19.6667 23.4167 19.6667C24.5673 19.6667 25.5 20.5703 25.5 21.685C25.5 22.7783 25.0989 23.3534 23.6628 25.3751C23.5445 25.5416 23.2889 25.5416 23.1705 25.3751Z" stroke="#F34147" stroke-width="2" stroke-linecap="round" stroke-linejoin="round"/>
</svg>
