<svg width="20" height="20" viewBox="0 0 20 20" fill="none" xmlns="http://www.w3.org/2000/svg">
<path d="M4.16667 9.16667V8.33333C4.16667 5.11167 6.77834 2.5 10 2.5C13.2217 2.5 15.8333 5.11167 15.8333 8.33333V9.16667M4.16667 9.16667H5.41667C5.64679 9.16667 5.83333 9.35321 5.83333 9.58333V13.75C5.83333 13.9801 5.64679 14.1667 5.41667 14.1667H4.16667C3.24619 14.1667 2.5 13.4205 2.5 12.5V10.8333C2.5 9.91286 3.24619 9.16667 4.16667 9.16667ZM15.8333 9.16667H14.5833C14.3532 9.16667 14.1667 9.35321 14.1667 9.58333V13.75C14.1667 13.9801 14.3532 14.1667 14.5833 14.1667H15M15.8333 9.16667C16.7538 9.16667 17.5 9.91286 17.5 10.8333V12.5C17.5 13.4205 16.7538 14.1667 15.8333 14.1667H15M15 14.1667C15 15.8333 13.3333 16.6667 11.6667 16.6667M11.6667 16.6667V16.25C11.6667 16.0199 11.4801 15.8333 11.25 15.8333H10C9.53976 15.8333 9.16667 16.2064 9.16667 16.6667C9.16667 17.1269 9.53976 17.5 10 17.5H11.25C11.4801 17.5 11.6667 17.3135 11.6667 17.0833V16.6667Z" stroke="#666D80" stroke-width="2" stroke-linecap="round" stroke-linejoin="round"/>
</svg>
