<svg width="20" height="20" viewBox="0 0 20 20" fill="none" xmlns="http://www.w3.org/2000/svg">
<path d="M7.50016 17.5H5.8335C4.45278 17.5 3.3335 16.4491 3.3335 15.1528V9.08335C3.3335 8.46083 3.59689 7.8638 4.06573 7.42361L8.82165 2.95832C9.47253 2.34722 10.5278 2.34723 11.1787 2.95832L15.9346 7.42361C16.4034 7.8638 16.6668 8.46083 16.6668 9.08335V15.1528C16.6668 16.4491 15.5475 17.5 14.1668 17.5H12.5002M7.50016 17.5V13.3333C7.50016 12.4129 8.24635 11.6667 9.16683 11.6667H10.8335C11.754 11.6667 12.5002 12.4129 12.5002 13.3333V17.5M7.50016 17.5H12.5002" stroke="#666D80" stroke-width="2"/>
</svg>
