<svg width="20" height="20" viewBox="0 0 20 20" fill="none" xmlns="http://www.w3.org/2000/svg">
<path d="M12.8121 3.04539C10.1073 1.95299 6.89168 2.50182 4.6967 4.6968C1.76777 7.62573 1.76777 12.3745 4.6967 15.3034C6.89168 17.4984 10.1073 18.0472 12.8121 16.9548C13.2388 16.7825 13.445 16.2968 13.2727 15.8701C13.1003 15.4433 12.6147 15.2371 12.1879 15.4094C10.0812 16.2603 7.58078 15.8305 5.87521 14.1249C3.59715 11.8468 3.59715 8.15337 5.87521 5.87531C7.58078 4.16974 10.0812 3.73992 12.1879 4.59077C12.6147 4.76313 13.1003 4.5569 13.2727 4.13015C13.445 3.7034 13.2388 3.21774 12.8121 3.04539Z" fill="#DF1C41"/>
<path d="M14.3393 6.49418C14.0138 6.16874 13.4862 6.16874 13.1607 6.49418C12.8353 6.81962 12.8353 7.34726 13.1607 7.67269L14.6548 9.16677H8.33333C7.87309 9.16677 7.49999 9.53987 7.49999 10.0001C7.49999 10.4603 7.87309 10.8334 8.33333 10.8334H14.6548L13.1607 12.3275C12.8353 12.653 12.8353 13.1806 13.1607 13.506C13.4862 13.8315 14.0138 13.8315 14.3393 13.506L17.2559 10.5894C17.5814 10.2639 17.5814 9.73628 17.2559 9.41085L14.3393 6.49418Z" fill="#DF1C41"/>
</svg>
