<svg width="36" height="36" viewBox="0 0 36 36" fill="none" xmlns="http://www.w3.org/2000/svg">
<rect x="0.5" y="0.5" width="35" height="35" rx="7.5" fill="white"/>
<rect x="0.5" y="0.5" width="35" height="35" rx="7.5" stroke="#DFE1E7"/>
<g clip-path="url(#clip0_17816_2098)">
<path d="M22.1665 25.2186V24.2501C22.1665 22.4091 20.6741 20.9167 18.8332 20.9167H17.1665C15.3256 20.9167 13.8332 22.4091 13.8332 24.2501V25.2186M22.1665 25.2186C24.6573 23.7777 26.3332 21.0846 26.3332 18.0001C26.3332 13.3977 22.6022 9.66675 17.9998 9.66675C13.3975 9.66675 9.6665 13.3977 9.6665 18.0001C9.6665 21.0846 11.3423 23.7777 13.8332 25.2186M22.1665 25.2186C20.9408 25.9276 19.5177 26.3334 17.9998 26.3334C16.482 26.3334 15.0589 25.9276 13.8332 25.2186M20.4998 15.5001C20.4998 16.8808 19.3805 18.0001 17.9998 18.0001C16.6191 18.0001 15.4998 16.8808 15.4998 15.5001C15.4998 14.1194 16.6191 13.0001 17.9998 13.0001C19.3805 13.0001 20.4998 14.1194 20.4998 15.5001Z" stroke="#F34147" stroke-width="2"/>
</g>
<defs>
<clipPath id="clip0_17816_2098">
<rect width="20" height="20" fill="white" transform="translate(8 8)"/>
</clipPath>
</defs>
</svg>
