<svg width="20" height="20" viewBox="0 0 20 20" fill="none" xmlns="http://www.w3.org/2000/svg">
<g clip-path="url(#clip0_17816_7042)">
<path d="M5.6572 2.65593L7.87746 1.73627C8.34185 1.54391 8.87426 1.76444 9.06662 2.22883C9.21957 2.5981 9.60261 2.81798 10.0023 2.81828C10.4022 2.81857 10.7799 2.59836 10.933 2.22891C11.1253 1.76447 11.6578 1.54392 12.1222 1.7363L14.3424 2.65591C14.8068 2.84828 15.0273 3.38072 14.835 3.84514C14.6819 4.21458 14.7934 4.63745 15.0764 4.91999C15.3592 5.2024 15.7856 5.31782 16.1548 5.16487C16.6192 4.97251 17.1516 5.19304 17.344 5.65743L18.2637 7.8777C18.456 8.34209 18.2355 8.8745 17.7711 9.06685C17.4018 9.21981 17.1819 9.60288 17.1816 10.0026C17.1813 10.4024 17.4016 10.7802 17.771 10.9333C18.2354 11.1256 18.456 11.6581 18.2636 12.1225L17.344 14.3426C17.1516 14.8071 16.6192 15.0276 16.1547 14.8352C15.7853 14.6822 15.3625 14.7936 15.0799 15.0766C14.7975 15.3594 14.6821 15.7858 14.8351 16.1551C15.0274 16.6195 14.8069 17.1519 14.3425 17.3442L12.1222 18.2639C11.6578 18.4562 11.1254 18.2357 10.9331 17.7713C10.7801 17.4021 10.397 17.1822 9.99733 17.1819C9.59743 17.1816 9.21961 17.4018 9.06658 17.7712C8.8742 18.2357 8.34175 18.4562 7.87731 18.2639L5.65723 17.3443C5.19277 17.1519 4.97222 16.6194 5.1646 16.155C5.31764 15.7855 5.20625 15.3627 4.92327 15.0801C4.64044 14.7977 4.21411 14.6823 3.84485 14.8353C3.38046 15.0276 2.84805 14.8071 2.65569 14.3427L1.73603 12.1225C1.54367 11.6581 1.7642 11.1257 2.2286 10.9333C2.59786 10.7803 2.81774 10.3973 2.81804 9.9976C2.81834 9.5977 2.59812 9.21991 2.22865 9.06687C1.7642 8.87449 1.54365 8.34202 1.73603 7.87757L2.65561 5.65751C2.84799 5.19306 3.38046 4.9725 3.84491 5.16488C4.21438 5.31792 4.63723 5.20651 4.9198 4.92353C5.20221 4.64069 5.31758 4.21435 5.16463 3.84509C4.97227 3.38069 5.1928 2.84829 5.6572 2.65593Z" stroke="#666D80" stroke-width="2" stroke-linejoin="round"/>
</g>
<defs>
<clipPath id="clip0_17816_7042">
<rect width="20" height="20" fill="white"/>
</clipPath>
</defs>
</svg>
