<svg width="20" height="20" viewBox="0 0 20 20" fill="none" xmlns="http://www.w3.org/2000/svg">
<path d="M10 9.16667L16.6667 6.2037M10 9.16667L3.33333 6.2037M10 9.16667V16.6667M13.75 4.16667L15.7184 5.04152C16.8018 5.52302 17.5 6.59739 17.5 7.78295V12.217C17.5 13.4026 16.8018 14.477 15.7184 14.9585L11.6246 16.778C10.5903 17.2376 9.40971 17.2376 8.37545 16.778L4.28158 14.9585C3.1982 14.477 2.5 13.4026 2.5 12.217V7.78295C2.5 6.59739 3.1982 5.52302 4.28158 5.04152L8.37545 3.22202C9.40971 2.76235 10.5903 2.76235 11.6246 3.22202L13.75 4.16667ZM13.75 4.16667L6.25 7.5" stroke="#F34147" stroke-width="2" stroke-linecap="round" stroke-linejoin="round"/>
</svg>
