<svg width="36" height="36" viewBox="0 0 36 36" fill="none" xmlns="http://www.w3.org/2000/svg">
<rect x="0.5" y="0.5" width="35" height="35" rx="7.5" fill="white"/>
<rect x="0.5" y="0.5" width="35" height="35" rx="7.5" stroke="#DFE1E7"/>
<path d="M10.5 25.4999L10.5 17.0741C10.5 16.0454 10.9749 15.0744 11.7869 14.4429L15.9535 11.2022C16.5554 10.7341 17.2777 10.5 18 10.5C18.7223 10.5 19.4446 10.7341 20.0465 11.2022L24.2131 14.4429C25.0251 15.0744 25.5 16.0454 25.5 17.0741V25.4999M18 19.6319V24.1458M18 19.6319L21.8194 18.0405M18 19.6319L14.1806 18.0405M17.1987 16.4936L14.688 17.5397C14.1705 17.7554 13.8333 18.2611 13.8333 18.8218V22.1782C13.8333 22.7389 14.1705 23.2446 14.688 23.4603L17.1987 24.5064C17.7115 24.7201 18.2885 24.7201 18.8013 24.5064L21.312 23.4603C21.8295 23.2446 22.1667 22.7389 22.1667 22.1782V18.8218C22.1667 18.2611 21.8295 17.7554 21.312 17.5397L18.8013 16.4936C18.2885 16.2799 17.7115 16.2799 17.1987 16.4936Z" stroke="#F34147" stroke-width="2" stroke-linecap="round" stroke-linejoin="round"/>
</svg>
