<svg width="36" height="36" viewBox="0 0 36 36" fill="none" xmlns="http://www.w3.org/2000/svg">
<rect x="0.5" y="0.5" width="35" height="35" rx="7.5" fill="white"/>
<rect x="0.5" y="0.5" width="35" height="35" rx="7.5" stroke="#DFE1E7"/>
<path d="M18 17.1667L24.6667 14.2037M18 17.1667L11.3333 14.2037M18 17.1667V24.6667M21.75 12.1667L24.0153 13.1735C24.9182 13.5747 25.5 14.47 25.5 15.458V20.542C25.5 21.53 24.9182 22.4253 24.0153 22.8265L19.3538 24.8983C18.4919 25.2814 17.5081 25.2814 16.6462 24.8983L11.9847 22.8265C11.0818 22.4253 10.5 21.53 10.5 20.542V15.458C10.5 14.47 11.0818 13.5747 11.9847 13.1735L16.6462 11.1017C17.5081 10.7186 18.4919 10.7186 19.3538 11.1017L21.75 12.1667ZM21.75 12.1667L14.25 15.5" stroke="#F34147" stroke-width="1.66667" stroke-linecap="round" stroke-linejoin="round"/>
</svg>
