<svg width="20" height="20" viewBox="0 0 20 20" fill="none" xmlns="http://www.w3.org/2000/svg">
<path d="M2.5 6.66667V5.5C2.5 3.84315 3.84315 2.5 5.5 2.5H6.66667M17.5 6.66667V5.5C17.5 3.84315 16.1569 2.5 14.5 2.5H13.3333M2.5 13.3333V14.5C2.5 16.1569 3.84315 17.5 5.5 17.5H6.66667M17.5 13.3333V14.5C17.5 16.1569 16.1569 17.5 14.5 17.5H13.3333M8.33333 11.6667H11.6667M10.8333 9.16667H11.6667M7.83333 14.1667H12.1667C13.2712 14.1667 14.1667 13.2712 14.1667 12.1667V7.83333C14.1667 6.72876 13.2712 5.83333 12.1667 5.83333H7.83333C6.72876 5.83333 5.83333 6.72876 5.83333 7.83333V12.1667C5.83333 13.2712 6.72876 14.1667 7.83333 14.1667Z" stroke="#666D80" stroke-width="2" stroke-linecap="round" stroke-linejoin="round"/>
</svg>
