<svg width="36" height="36" viewBox="0 0 36 36" fill="none" xmlns="http://www.w3.org/2000/svg">
<rect x="0.5" y="0.5" width="35" height="35" rx="7.5" fill="white"/>
<rect x="0.5" y="0.5" width="35" height="35" rx="7.5" stroke="#DFE1E7"/>
<path d="M18 9.5C18.9384 9.5 19.8778 9.80463 20.6602 10.4131L24.8271 13.6533C25.8827 14.4743 26.5 15.737 26.5 17.0742V25.5C26.5 26.0523 26.0523 26.5 25.5 26.5C24.9477 26.5 24.5 26.0523 24.5 25.5V17.0742C24.5 16.3543 24.1678 15.6745 23.5996 15.2324L19.4326 11.9912C19.0112 11.6635 18.5062 11.5 18 11.5C17.4938 11.5 16.9888 11.6635 16.5674 11.9912L12.4004 15.2324C11.8322 15.6745 11.5 16.3543 11.5 17.0742V25.5C11.5 26.0523 11.0523 26.5 10.5 26.5C9.94773 26.5 9.50003 26.0523 9.5 25.5V17.0742C9.5 15.737 10.1173 14.4743 11.1729 13.6533L15.3398 10.4131C16.1222 9.80463 17.0617 9.5 18 9.5ZM20.167 15.333C21.8236 15.3332 23.1668 16.6764 23.167 18.333V22.667C23.1668 24.3236 21.8236 25.6668 20.167 25.667H15.833C14.1764 25.6668 12.8332 24.3236 12.833 22.667V18.333C12.8332 16.6764 14.1764 15.3332 15.833 15.333H20.167ZM15.833 17.333C15.281 17.3332 14.8332 17.781 14.833 18.333V22.667C14.8332 23.219 15.281 23.6668 15.833 23.667H20.167C20.719 23.6668 21.1668 23.219 21.167 22.667V18.333C21.1668 17.781 20.719 17.3332 20.167 17.333H19.25V19.3193C19.25 19.49 19.0828 19.6106 18.9209 19.5566L18.6328 19.4609C18.2223 19.3241 17.7777 19.3241 17.3672 19.4609L17.0791 19.5566C16.9172 19.6106 16.75 19.49 16.75 19.3193V17.333H15.833Z" fill="#F34147"/>
</svg>
