<svg width="49" height="48" viewBox="0 0 49 48" fill="none" xmlns="http://www.w3.org/2000/svg">
<rect x="0.333496" width="48" height="48" rx="10" fill="#F34147"/>
<path d="M28.876 21.3115C29.0349 20.7828 29.5932 20.4818 30.1221 20.6406C31.833 21.1547 33.1807 22.5742 33.5244 24.4004L34.25 28.2568C34.815 31.2612 32.4726 33.9995 29.417 34H19.251C16.1952 33.9997 13.8529 31.2614 14.418 28.2568L15.1436 24.4004C15.4873 22.5742 16.8349 21.1546 18.5459 20.6406C19.0747 20.4821 19.6331 20.7828 19.792 21.3115C19.9505 21.8401 19.6504 22.3975 19.1221 22.5566C18.0974 22.8643 17.3083 23.7081 17.1084 24.7705L16.3838 28.627C16.0574 30.3634 17.4102 31.9997 19.251 32H29.417C31.2575 31.9995 32.6105 30.3632 32.2842 28.627L31.5596 24.7705C31.3597 23.7081 30.5704 22.8644 29.5459 22.5566C29.0173 22.3977 28.7174 21.8402 28.876 21.3115ZM28.334 24C28.886 24.0002 29.3339 24.4479 29.334 25C29.334 25.5522 28.8861 25.9998 28.334 26C27.8871 26 27.4014 26.1855 26.8027 26.5938C26.1932 27.0095 25.5891 27.5661 24.8623 28.207C23.4964 29.4115 21.7163 30.9139 19.334 30.9141C18.7817 30.9141 18.334 30.4663 18.334 29.9141C18.3343 29.3621 18.7819 28.9141 19.334 28.9141C20.8676 28.9139 22.1195 27.9596 23.54 26.707C24.2063 26.1195 24.9347 25.4469 25.6758 24.9414C26.4278 24.4285 27.3126 24 28.334 24ZM21.4131 15.1934C23.0286 13.603 25.6414 13.6028 27.2568 15.1934C28.5811 16.4975 28.8584 18.5206 27.9258 20.1279L26.0498 23.3613C25.2884 24.6727 23.3813 24.672 22.6201 23.3604V23.3613L20.7432 20.1279C19.8104 18.5205 20.0886 16.4976 21.4131 15.1934ZM25.8535 16.6182C25.0166 15.7942 23.6535 15.7944 22.8164 16.6182C22.1384 17.2857 22.0014 18.3104 22.4736 19.124L24.335 22.332L26.1963 19.124C26.6682 18.3104 26.5313 17.2856 25.8535 16.6182ZM24.334 17C24.886 17.0002 25.3339 17.4479 25.334 18C25.334 18.5522 24.8861 18.9998 24.334 19C23.7817 19 23.334 18.5523 23.334 18C23.3341 17.4478 23.7818 17 24.334 17Z" fill="white"/>
</svg>
