<svg width="20" height="20" viewBox="0 0 20 20" fill="none" xmlns="http://www.w3.org/2000/svg">
<path d="M2.5 17.4999L2.5 9.07407C2.5 8.04544 2.97491 7.07442 3.78686 6.4429L7.95353 3.20216C8.55538 2.73405 9.27769 2.5 10 2.5C10.7223 2.5 11.4446 2.73405 12.0465 3.20216L16.2131 6.4429C17.0251 7.07442 17.5 8.04544 17.5 9.07407V17.4999M10 11.6319V16.1458M10 11.6319L13.8194 10.0405M10 11.6319L6.18056 10.0405M9.19872 8.49359L6.68803 9.53971C6.17047 9.75536 5.83333 10.2611 5.83333 10.8218V14.1782C5.83333 14.7389 6.17047 15.2446 6.68803 15.4603L9.19872 16.5064C9.71154 16.7201 10.2885 16.7201 10.8013 16.5064L13.312 15.4603C13.8295 15.2446 14.1667 14.7389 14.1667 14.1782V10.8218C14.1667 10.2611 13.8295 9.75536 13.312 9.53971L10.8013 8.49359C10.2885 8.27991 9.71154 8.27991 9.19872 8.49359Z" stroke="#666D80" stroke-width="2" stroke-linecap="round" stroke-linejoin="round"/>
</svg>
